# xmcd CD database file
#
# Track frame offsets:
#	150
#	11368
#	27989
#	40912
#	52418
#	64964
#	76085
#	88600
#	100986
#	110733
#	119865
#	131997
#
# Disc length: 1934 seconds
#
# Revision: 0
# Processed by: cddbd v1.4PL0 Copyright (c) Steve Scherf et al.
# Submitted via: CDex 1.40Beta9
#
DISCID=ad078c0c
DTITLE=Memphis Slim - I'll Just Keep On Singin' The Blues
DYEAR=2000
DGENRE=Blues
TTITLE0=Lonesome
TTITLE1=Cold Blooded Woman
TTITLE2=One Man's Mad
TTITLE3=Let The Good Times Roll Creole
TTITLE4=What Is The Mare Rack?
TTITLE5=Pigalle Love
TTITLE6=Four Walls
TTITLE7=It's Been Too Long
TTITLE8=Big Bertha
TTITLE9=I'm Lost Without You
TTITLE10=I'll Just Keep On Singin' The Blues
TTITLE11=True Love
EXTD=YEAR: 2000 ID3G: 0
EXTT0=
EXTT1=
EXTT2=
EXTT3=
EXTT4=
EXTT5=
EXTT6=
EXTT7=
EXTT8=
EXTT9=
EXTT10=
EXTT11=
PLAYORDER=
